<svg width="573" height="625" viewBox="0 0 573 625" fill="none" xmlns="http://www.w3.org/2000/svg">
<path fill-rule="evenodd" clip-rule="evenodd" d="M572 625L572 624.69L417 624.69L417 625L416 625L416 624.69L261 624.69L261 625L260 625L260 624.69L106 624.69L106 625L105 625L105 624.69L0.000671414 624.69L0.000671501 623.69L105 623.69L105 468.768L0.000562975 468.768L0.000563062 467.768L105 467.768L105 312.845L0.000698676 312.845L0.000698764 311.845L105 311.845L105 156.923L0.000529202 156.923L0.000529289 155.923L105 155.923L105 1.99996L106 1.99996L106 155.923L260 155.923L260 1.99991L261 1.99991L261 155.923L416 155.923L416 1.99993L417 1.99993L417 155.923L572 155.923L572 1.00012L0.000664903 1.00007L0.000664991 7.19771e-05L572 -8.743e-08L573 0L573 625L572 625ZM106 156.923L106 311.845L260 311.845L260 156.923L106 156.923ZM106 312.845L106 467.768L260 467.768L260 312.845L106 312.845ZM106 468.768L106 623.69L260 623.69L260 468.768L106 468.768ZM416 623.69L261 623.69L261 468.768L416 468.768L416 623.69ZM416 467.768L261 467.768L261 312.845L416 312.845L416 467.768ZM416 311.845L261 311.845L261 156.923L416 156.923L416 311.845ZM417 156.923L417 311.845L572 311.845L572 156.923L417 156.923ZM417 312.845L417 467.768L572 467.768L572 312.845L417 312.845ZM417 468.768L417 623.69L572 623.69L572 468.768L417 468.768Z" fill="url(#paint0_linear_4135_608)"/>
<defs>
<linearGradient id="paint0_linear_4135_608" x1="264" y1="5.29435e-05" x2="266" y2="610" gradientUnits="userSpaceOnUse">
<stop stop-color="#303D73"/>
<stop offset="1" stop-color="#303D73" stop-opacity="0"/>
</linearGradient>
</defs>
</svg>
