<svg width="520" height="567" viewBox="0 0 520 567" fill="none" xmlns="http://www.w3.org/2000/svg">
<path fill-rule="evenodd" clip-rule="evenodd" d="M519 567L519 566.754L378.355 566.754L378.355 566.942L377.355 566.942L377.355 566.754L236.848 566.754L236.848 566.942L235.848 566.942L235.848 566.754L96.246 566.754L96.246 566.942L95.246 566.942L95.246 566.754L-0.000854471 566.754L-0.000854383 565.754L95.246 565.754L95.246 425.314L-0.000842106 425.314L-0.000842018 424.314L95.246 424.314L95.246 283.876L-0.000829741 283.876L-0.000829653 282.876L95.246 282.876L95.246 142.439L-0.000878411 142.439L-0.000878324 141.439L95.246 141.439L95.2461 1.8135L96.2461 1.8135L96.246 141.439L235.848 141.439L235.848 1.81345L236.848 1.81345L236.848 141.439L377.355 141.439L377.355 1.81346L378.355 1.81346L378.355 141.439L519 141.439L519 1L-0.000866046 0.999955L-0.000865959 -4.54599e-05L519 -8.74293e-08L519.125 -7.65015e-08L520 0L520 567L519 567ZM96.246 142.439L96.246 282.876L235.848 282.876L235.848 142.439L96.246 142.439ZM96.246 283.876L96.246 424.314L235.848 424.314L235.848 283.876L96.246 283.876ZM96.246 425.314L96.246 565.754L235.848 565.754L235.848 425.314L96.246 425.314ZM377.355 565.754L236.848 565.754L236.848 425.314L377.355 425.314L377.355 565.754ZM377.355 424.314L236.848 424.314L236.848 283.876L377.355 283.876L377.355 424.314ZM377.355 282.876L236.848 282.876L236.848 142.439L377.355 142.439L377.355 282.876ZM378.355 142.439L378.355 282.876L519 282.876L519 142.439L378.355 142.439ZM378.355 283.876L378.355 424.314L519 424.314L519 283.876L378.355 283.876ZM378.355 425.314L378.355 565.754L519 565.754L519 425.314L378.355 425.314Z" fill="url(#paint0_diamond_4135_588)"/>
<defs>
<radialGradient id="paint0_diamond_4135_588" cx="0" cy="0" r="1" gradientUnits="userSpaceOnUse" gradientTransform="translate(530 -1.66026e-06) rotate(137.368) scale(564.754 791.076)">
<stop stop-color="#303D73"/>
<stop offset="0.999651" stop-color="#303D73" stop-opacity="0"/>
</radialGradient>
</defs>
</svg>
