<svg width="192" height="17" viewBox="0 0 192 17" fill="none" xmlns="http://www.w3.org/2000/svg">
<path d="M34.4199 10.9081H38.2514C38.3182 11.3827 38.5255 11.8014 38.8732 12.1643C39.221 12.5272 39.6823 12.8064 40.2574 13.0018C40.8458 13.1972 41.5278 13.2949 42.3035 13.2949C43.4135 13.2949 44.2828 13.1344 44.9113 12.8134C45.5532 12.4924 45.8742 12.0387 45.8742 11.4525C45.8742 11.0058 45.687 10.6639 45.3125 10.4266C44.9514 10.1753 44.2694 9.99388 43.2664 9.88222L40.3577 9.56816C38.3383 9.3588 36.8739 8.87027 35.9645 8.10258C35.0685 7.3349 34.6205 6.28805 34.6205 4.96205C34.6205 3.9152 34.9147 3.02189 35.5032 2.28212C36.105 1.54235 36.9408 0.977055 38.0107 0.586233C39.0939 0.195411 40.3577 0 41.802 0C43.233 0 44.4967 0.216348 45.5933 0.649044C46.69 1.08174 47.5659 1.68193 48.2212 2.44962C48.8765 3.2173 49.2309 4.11061 49.2844 5.12954H45.4529C45.3994 4.7108 45.2122 4.35488 44.8912 4.06176C44.5837 3.75468 44.1624 3.5174 43.6275 3.3499C43.1059 3.16845 42.4707 3.07773 41.7218 3.07773C40.7188 3.07773 39.9164 3.23126 39.3146 3.53834C38.7261 3.83145 38.4319 4.25717 38.4319 4.81549C38.4319 5.23423 38.6058 5.56224 38.9535 5.79952C39.3146 6.03681 39.9498 6.21128 40.8592 6.32294L43.9284 6.67887C45.3326 6.83241 46.4559 7.07667 47.2984 7.41166C48.141 7.74665 48.7495 8.20727 49.1239 8.7935C49.4984 9.37973 49.6856 10.1195 49.6856 11.0128C49.6856 12.0876 49.3713 13.0297 48.7428 13.8393C48.1276 14.6349 47.2583 15.256 46.135 15.7027C45.025 16.1493 43.7278 16.3727 42.2433 16.3727C40.7054 16.3727 39.3547 16.1424 38.1912 15.6817C37.0411 15.2211 36.1317 14.586 35.463 13.7765C34.8077 12.953 34.46 11.9968 34.4199 10.9081Z" fill="url(#paint0_linear_4410_289)"/>
<path d="M55.2424 9.08662C55.2424 9.8543 55.3828 10.5243 55.6636 11.0966C55.9578 11.6549 56.3791 12.0876 56.9274 12.3946C57.4757 12.6878 58.1511 12.8343 58.9535 12.8343C59.7692 12.8343 60.4513 12.6878 60.9996 12.3946C61.5479 12.0876 61.9625 11.6549 62.2433 11.0966C62.5241 10.5243 62.6646 9.8543 62.6646 9.08662V0.33499H66.4358V9.27505C66.4358 10.6988 66.1216 11.941 65.493 13.0018C64.8779 14.0626 64.0086 14.8931 62.8852 15.4933C61.7619 16.0795 60.4513 16.3727 58.9535 16.3727C57.4557 16.3727 56.1451 16.0795 55.0217 15.4933C53.8983 14.8931 53.0224 14.0626 52.3938 13.0018C51.7653 11.941 51.451 10.6988 51.451 9.27505V0.33499H55.2424V9.08662Z" fill="url(#paint1_linear_4410_289)"/>
<path d="M77.3088 0.33499C78.5392 0.33499 79.5957 0.558317 80.4783 1.00497C81.3743 1.43767 82.0564 2.05182 82.5244 2.84742C83.0059 3.64302 83.2466 4.57122 83.2466 5.63203C83.2466 6.69283 83.0059 7.62103 82.5244 8.41664C82.0564 9.21224 81.3743 9.83337 80.4783 10.28C79.5957 10.7127 78.5392 10.9291 77.3088 10.9291H70.7292V7.72572H77.1082C77.8304 7.72572 78.3988 7.54426 78.8133 7.18136C79.2279 6.80449 79.4352 6.28805 79.4352 5.63203C79.4352 4.976 79.2279 4.46654 78.8133 4.10363C78.3988 3.72677 77.8304 3.53834 77.1082 3.53834H71.0702L72.7753 1.69589V16.0377H68.9839V0.33499H77.3088Z" fill="url(#paint2_linear_4410_289)"/>
<path d="M97.5441 6.72075V9.65191H86.6515V6.72075H97.5441ZM89.2192 8.18633L88.2162 14.6768L86.6314 12.8134H98.186V16.0377H84.4248L85.5883 8.18633L84.4248 0.33499H98.0857V3.55927H86.6314L88.2162 1.69589L89.2192 8.18633Z" fill="url(#paint3_linear_4410_289)"/>
<path d="M103.103 7.24417H108.74C109.449 7.24417 110.01 7.07667 110.425 6.74168C110.839 6.39273 111.047 5.91119 111.047 5.29704C111.047 4.68289 110.839 4.20832 110.425 3.87333C110.01 3.52438 109.449 3.3499 108.74 3.3499H102.561L104.266 1.40277V16.0377H100.475V0.33499H109.241C110.365 0.33499 111.348 0.544359 112.19 0.963098C113.033 1.38184 113.688 1.96109 114.156 2.70086C114.624 3.44063 114.858 4.30602 114.858 5.29704C114.858 6.27409 114.624 7.13251 114.156 7.87228C113.688 8.61205 113.033 9.1913 112.19 9.61004C111.348 10.0148 110.365 10.2172 109.241 10.2172H103.103V7.24417ZM105.53 8.68882H109.803L115.339 16.0377H110.946L105.53 8.68882Z" fill="url(#paint4_linear_4410_289)"/>
<path d="M116.341 10.9081H120.172C120.239 11.3827 120.446 11.8014 120.794 12.1643C121.142 12.5272 121.603 12.8064 122.178 13.0018C122.767 13.1972 123.449 13.2949 124.224 13.2949C125.334 13.2949 126.204 13.1344 126.832 12.8134C127.474 12.4924 127.795 12.0387 127.795 11.4525C127.795 11.0058 127.608 10.6639 127.233 10.4266C126.872 10.1753 126.19 9.99388 125.187 9.88222L122.279 9.56816C120.259 9.3588 118.795 8.87027 117.885 8.10258C116.989 7.3349 116.541 6.28805 116.541 4.96205C116.541 3.9152 116.836 3.02189 117.424 2.28212C118.026 1.54235 118.862 0.977055 119.931 0.586233C121.015 0.195411 122.279 0 123.723 0C125.154 0 126.418 0.216348 127.514 0.649044C128.611 1.08174 129.487 1.68193 130.142 2.44962C130.797 3.2173 131.152 4.11061 131.205 5.12954H127.374C127.32 4.7108 127.133 4.35488 126.812 4.06176C126.504 3.75468 126.083 3.5174 125.548 3.3499C125.027 3.16845 124.391 3.07773 123.643 3.07773C122.64 3.07773 121.837 3.23126 121.235 3.53834C120.647 3.83145 120.353 4.25717 120.353 4.81549C120.353 5.23423 120.527 5.56224 120.874 5.79952C121.235 6.03681 121.871 6.21128 122.78 6.32294L125.849 6.67887C127.253 6.83241 128.377 7.07667 129.219 7.41166C130.062 7.74665 130.67 8.20727 131.045 8.7935C131.419 9.37973 131.606 10.1195 131.606 11.0128C131.606 12.0876 131.292 13.0297 130.664 13.8393C130.048 14.6349 129.179 15.256 128.056 15.7027C126.946 16.1493 125.649 16.3727 124.164 16.3727C122.626 16.3727 121.276 16.1424 120.112 15.6817C118.962 15.2211 118.053 14.586 117.384 13.7765C116.729 12.953 116.381 11.9968 116.341 10.9081Z" fill="url(#paint5_linear_4410_289)"/>
<path d="M133.572 0.33499H137.364V16.0377H133.572V0.33499Z" fill="url(#paint6_linear_4410_289)"/>
<path d="M155.417 9.23317C155.39 10.1823 155.21 11.0896 154.875 11.955C154.541 12.8064 154.06 13.5671 153.431 14.2371C152.803 14.8931 152.027 15.4165 151.104 15.8074C150.181 16.1842 149.105 16.3727 147.874 16.3727C146.698 16.3727 145.594 16.1912 144.565 15.8283C143.548 15.4654 142.652 14.935 141.877 14.2371C141.101 13.5252 140.499 12.6668 140.071 11.6619C139.643 10.6429 139.429 9.48442 139.429 8.18633C139.429 6.88824 139.643 5.73671 140.071 4.73174C140.512 3.71281 141.121 2.8544 141.897 2.1565C142.686 1.44465 143.602 0.907266 144.645 0.54436C145.701 0.181453 146.851 0 148.095 0C149.713 0 151.117 0.265201 152.308 0.795602C153.511 1.326 154.474 2.05182 155.196 2.97304C155.932 3.89426 156.4 4.95507 156.601 6.15545H152.769C152.635 5.56922 152.355 5.06673 151.927 4.64799C151.499 4.2153 150.957 3.88729 150.302 3.66396C149.66 3.44063 148.924 3.32897 148.095 3.32897C147.092 3.32897 146.23 3.5174 145.507 3.89426C144.785 4.25717 144.224 4.80153 143.822 5.52734C143.421 6.2392 143.221 7.12553 143.221 8.18633C143.221 9.24713 143.428 10.1474 143.842 10.8872C144.27 11.627 144.872 12.1853 145.648 12.5621C146.437 12.939 147.36 13.1274 148.416 13.1274C149.446 13.1274 150.349 12.9669 151.124 12.6459C151.913 12.3249 152.535 11.8642 152.99 11.2641C153.458 10.6639 153.725 9.94503 153.792 9.10755L155.417 9.23317ZM148.857 10.8244V8.01883H156.741V16.0377H154.033L153.511 9.7566L154.274 10.8244H148.857Z" fill="url(#paint7_linear_4410_289)"/>
<path d="M159.128 0.33499H162.919V16.0377H159.128V0.33499ZM171.084 0.33499H174.855V16.0377H171.084V0.33499ZM161.234 6.34388H172.688V9.81941H161.234V6.34388Z" fill="url(#paint8_linear_4410_289)"/>
<path d="M182.351 2.07275H186.142V16.0377H182.351V2.07275ZM176.493 0.33499H191.999V3.83145H176.493V0.33499Z" fill="url(#paint9_linear_4410_289)"/>
<path d="M8.18633 1.73455H22.8264C26.4042 1.73455 29.3046 4.63492 29.3046 8.2127V10.6676C29.3046 12.8896 27.5033 14.6908 25.2813 14.6908C24.3629 14.6908 23.4722 14.3766 22.757 13.8004L21.9706 13.1667C18.1974 10.1263 12.8154 10.1263 9.04214 13.1667L8.25571 13.8004C7.54058 14.3766 6.64982 14.6908 5.73141 14.6908C3.50944 14.6908 1.70819 12.8896 1.70819 10.6676V8.2127C1.70819 4.63492 4.60855 1.73455 8.18633 1.73455Z" stroke="#7BC0FF" stroke-width="3.41637"/>
<defs>
<linearGradient id="paint0_linear_4410_289" x1="34.4199" y1="8.18565" x2="189.747" y2="8.18565" gradientUnits="userSpaceOnUse">
<stop stop-color="#7BC0FF"/>
<stop offset="1" stop-color="#7E69FF"/>
</linearGradient>
<linearGradient id="paint1_linear_4410_289" x1="34.4199" y1="8.18565" x2="189.747" y2="8.18565" gradientUnits="userSpaceOnUse">
<stop stop-color="#7BC0FF"/>
<stop offset="1" stop-color="#7E69FF"/>
</linearGradient>
<linearGradient id="paint2_linear_4410_289" x1="34.4199" y1="8.18565" x2="189.747" y2="8.18565" gradientUnits="userSpaceOnUse">
<stop stop-color="#7BC0FF"/>
<stop offset="1" stop-color="#7E69FF"/>
</linearGradient>
<linearGradient id="paint3_linear_4410_289" x1="34.4199" y1="8.18565" x2="189.747" y2="8.18565" gradientUnits="userSpaceOnUse">
<stop stop-color="#7BC0FF"/>
<stop offset="1" stop-color="#7E69FF"/>
</linearGradient>
<linearGradient id="paint4_linear_4410_289" x1="34.4199" y1="8.18565" x2="189.747" y2="8.18565" gradientUnits="userSpaceOnUse">
<stop stop-color="#7BC0FF"/>
<stop offset="1" stop-color="#7E69FF"/>
</linearGradient>
<linearGradient id="paint5_linear_4410_289" x1="34.4199" y1="8.18565" x2="189.747" y2="8.18565" gradientUnits="userSpaceOnUse">
<stop stop-color="#7BC0FF"/>
<stop offset="1" stop-color="#7E69FF"/>
</linearGradient>
<linearGradient id="paint6_linear_4410_289" x1="34.4199" y1="8.18565" x2="189.747" y2="8.18565" gradientUnits="userSpaceOnUse">
<stop stop-color="#7BC0FF"/>
<stop offset="1" stop-color="#7E69FF"/>
</linearGradient>
<linearGradient id="paint7_linear_4410_289" x1="34.4199" y1="8.18565" x2="189.747" y2="8.18565" gradientUnits="userSpaceOnUse">
<stop stop-color="#7BC0FF"/>
<stop offset="1" stop-color="#7E69FF"/>
</linearGradient>
<linearGradient id="paint8_linear_4410_289" x1="34.4199" y1="8.18565" x2="189.747" y2="8.18565" gradientUnits="userSpaceOnUse">
<stop stop-color="#7BC0FF"/>
<stop offset="1" stop-color="#7E69FF"/>
</linearGradient>
<linearGradient id="paint9_linear_4410_289" x1="34.4199" y1="8.18565" x2="189.747" y2="8.18565" gradientUnits="userSpaceOnUse">
<stop stop-color="#7BC0FF"/>
<stop offset="1" stop-color="#7E69FF"/>
</linearGradient>
</defs>
</svg>
