<svg width="714" height="707" viewBox="0 0 714 707" fill="none" xmlns="http://www.w3.org/2000/svg">
<g opacity="0.8">
<g filter="url(#filter0_f_4135_784)">
<path d="M157.807 -171.243L390.16 60.6579C481.576 151.896 482.634 299.68 392.534 392.218C318.319 468.441 197.368 473.07 117.544 402.742L-157.898 160.067L157.807 -171.243Z" fill="#9FA1FA" fill-opacity="0.1"/>
</g>
<g opacity="0.8" filter="url(#filter1_f_4135_784)">
<path d="M8.82227 -80L568.369 360.553C578.764 370.231 566.253 386.613 554.18 379.132L-51.2184 3.97968L8.82227 -80Z" fill="url(#paint0_linear_4135_784)"/>
</g>
<g opacity="0.3" filter="url(#filter2_f_4135_784)">
<path d="M12 40.5L328.062 345.119C336.75 353.492 331.536 368.201 319.514 369.232C313.033 369.789 306.527 368.501 300.747 365.517L-71.1975 173.52L12 40.5Z" fill="url(#paint1_linear_4135_784)"/>
</g>
</g>
<circle cx="86.5" cy="210.5" r="1.5" fill="#7591D6"/>
<circle cx="56.5" cy="182.5" r="1.5" fill="#7591D6"/>
<circle cx="105.5" cy="165.5" r="1.5" fill="#7591D6"/>
<circle opacity="0.7" cx="61.5" cy="160.5" r="1.5" fill="#7591D6"/>
<circle opacity="0.8" cx="88.5" cy="127.5" r="1.5" fill="#7591D6"/>
<circle opacity="0.8" cx="110.5" cy="130.5" r="1.5" fill="#7591D6"/>
<circle opacity="0.5" cx="139.5" cy="129.5" r="1.5" fill="#7591D6"/>
<circle opacity="0.3" cx="115.5" cy="232.5" r="1.5" fill="#7591D6"/>
<circle cx="123.5" cy="239.5" r="1.5" fill="#7591D6"/>
<circle cx="142.5" cy="220.5" r="1.5" fill="#7591D6"/>
<circle opacity="0.8" cx="178.5" cy="191.5" r="1.5" fill="#7591D6"/>
<circle opacity="0.8" cx="206.5" cy="207.5" r="1.5" fill="#7591D6"/>
<circle opacity="0.8" cx="235.5" cy="252.5" r="1.5" fill="#7591D6"/>
<circle opacity="0.6" cx="244.5" cy="205.5" r="1.5" fill="#7591D6"/>
<circle opacity="0.6" cx="259.5" cy="204.5" r="1.5" fill="#7591D6"/>
<circle opacity="0.6" cx="228.5" cy="179.5" r="1.5" fill="#7591D6"/>
<circle opacity="0.3" cx="262.5" cy="143.5" r="1.5" fill="#7591D6"/>
<circle opacity="0.3" cx="274.5" cy="178.5" r="1.5" fill="#7591D6"/>
<circle opacity="0.4" cx="332.5" cy="168.5" r="1.5" fill="#7591D6"/>
<circle cx="303.5" cy="131.5" r="1.5" fill="#7591D6"/>
<circle cx="277.5" cy="105.5" r="1.5" fill="#7591D6"/>
<circle opacity="0.5" cx="209.5" cy="102.5" r="1.5" fill="#7591D6"/>
<circle opacity="0.9" cx="182.5" cy="76.5" r="1.5" fill="#7591D6"/>
<circle cx="195.5" cy="57.5" r="1.5" fill="#7591D6"/>
<circle cx="175.5" cy="59.5" r="1.5" fill="#7591D6"/>
<circle opacity="0.5" cx="126.5" cy="99.5" r="1.5" fill="#7591D6"/>
<circle cx="79.5" cy="100.5" r="1.5" fill="#7591D6"/>
<circle opacity="0.7" cx="26.5" cy="113.5" r="1.5" fill="#7591D6"/>
<circle opacity="0.9" cx="11.5" cy="115.5" r="1.5" fill="#7591D6"/>
<circle cx="10.5" cy="46.5" r="1.5" fill="#7591D6"/>
<circle cx="24.5" cy="2.5" r="1.5" fill="#7591D6"/>
<circle cx="95.5" cy="27.5" r="1.5" fill="#7591D6"/>
<circle opacity="0.3" cx="107.5" cy="58.5" r="1.5" fill="#7591D6"/>
<circle opacity="0.8" cx="291.5" cy="283.5" r="1.5" fill="#7591D6"/>
<circle cx="250.5" cy="301.5" r="1.5" fill="#7591D6"/>
<circle cx="325.5" cy="327.5" r="1.5" fill="#7591D6"/>
<circle opacity="0.9" cx="314.5" cy="302.5" r="1.5" fill="#7591D6"/>
<circle opacity="0.7" cx="355.5" cy="294.5" r="1.5" fill="#7591D6"/>
<circle opacity="0.3" cx="363.5" cy="284.5" r="1.5" fill="#7591D6"/>
<circle opacity="0.4" cx="409.5" cy="303.5" r="1.5" fill="#7591D6"/>
<circle cx="406.5" cy="376.5" r="1.5" fill="#7591D6"/>
<circle cx="387.5" cy="378.5" r="1.5" fill="#7591D6"/>
<circle cx="499.5" cy="350.5" r="1.5" fill="#7591D6"/>
<circle opacity="0.3" cx="489.5" cy="374.5" r="1.5" fill="#7591D6"/>
<circle opacity="0.3" cx="513.5" cy="371.5" r="1.5" fill="#7591D6"/>
<circle opacity="0.1" cx="492.5" cy="430.5" r="1.5" fill="#7591D6"/>
<circle cx="551.5" cy="359.5" r="1.5" fill="#7591D6"/>
<circle opacity="0.1" cx="579.5" cy="441.5" r="1.5" fill="#7591D6"/>
<circle opacity="0.3" cx="629.5" cy="428.5" r="1.5" fill="#7591D6"/>
<circle opacity="0.5" cx="642.5" cy="401.5" r="1.5" fill="#7591D6"/>
<circle opacity="0.5" cx="655.5" cy="428.5" r="1.5" fill="#7591D6"/>
<circle opacity="0.1" cx="669.5" cy="462.5" r="1.5" fill="#7591D6"/>
<circle opacity="0.3" cx="614.5" cy="495.5" r="1.5" fill="#7591D6"/>
<circle opacity="0.1" cx="624.5" cy="494.5" r="1.5" fill="#7591D6"/>
<circle opacity="0.1" cx="681.5" cy="400.5" r="1.5" fill="#7591D6"/>
<circle opacity="0.1" cx="694.5" cy="371.5" r="1.5" fill="#7591D6"/>
<circle opacity="0.1" cx="707.5" cy="358.5" r="1.5" fill="#7591D6"/>
<circle cx="516.5" cy="347.5" r="1.5" fill="#7591D6"/>
<circle opacity="0.1" cx="641.5" cy="353.5" r="1.5" fill="#7591D6"/>
<circle opacity="0.3" cx="638.5" cy="288.5" r="1.5" fill="#7591D6"/>
<circle cx="410.5" cy="285.5" r="1.5" fill="#7591D6"/>
<circle opacity="0.6" cx="390.5" cy="246.5" r="1.5" fill="#7591D6"/>
<circle opacity="0.3" cx="410.5" cy="201.5" r="1.5" fill="#7591D6"/>
<circle cx="396.5" cy="196.5" r="1.5" fill="#7591D6"/>
<circle opacity="0.1" cx="358.5" cy="204.5" r="1.5" fill="#7591D6"/>
<circle cx="374.5" cy="182.5" r="1.5" fill="#7591D6"/>
<circle cx="353.5" cy="149.5" r="1.5" fill="#7591D6"/>
<circle cx="496.5" cy="204.5" r="1.5" fill="#7591D6"/>
<circle cx="251.5" cy="279.5" r="1.5" fill="#7591D6"/>
<circle cx="179.5" cy="282.5" r="1.5" fill="#7591D6"/>
<defs>
<filter id="filter0_f_4135_784" x="-411.898" y="-425.243" width="1125.32" height="1131.83" filterUnits="userSpaceOnUse" color-interpolation-filters="sRGB">
<feFlood flood-opacity="0" result="BackgroundImageFix"/>
<feBlend mode="normal" in="SourceGraphic" in2="BackgroundImageFix" result="shape"/>
<feGaussianBlur stdDeviation="127" result="effect1_foregroundBlur_4135_784"/>
</filter>
<filter id="filter1_f_4135_784" x="-151.219" y="-180" width="823.461" height="661.031" filterUnits="userSpaceOnUse" color-interpolation-filters="sRGB">
<feFlood flood-opacity="0" result="BackgroundImageFix"/>
<feBlend mode="normal" in="SourceGraphic" in2="BackgroundImageFix" result="shape"/>
<feGaussianBlur stdDeviation="50" result="effect1_foregroundBlur_4135_784"/>
</filter>
<filter id="filter2_f_4135_784" x="-171.197" y="-59.5" width="603.578" height="528.859" filterUnits="userSpaceOnUse" color-interpolation-filters="sRGB">
<feFlood flood-opacity="0" result="BackgroundImageFix"/>
<feBlend mode="normal" in="SourceGraphic" in2="BackgroundImageFix" result="shape"/>
<feGaussianBlur stdDeviation="50" result="effect1_foregroundBlur_4135_784"/>
</filter>
<linearGradient id="paint0_linear_4135_784" x1="-20.3699" y1="2.81491" x2="684.124" y2="497.436" gradientUnits="userSpaceOnUse">
<stop stop-color="#5E91F3"/>
<stop offset="1" stop-color="#5E91F3" stop-opacity="0"/>
</linearGradient>
<linearGradient id="paint1_linear_4135_784" x1="-4.61863" y1="130.218" x2="428.812" y2="498.911" gradientUnits="userSpaceOnUse">
<stop stop-color="#5E91F3"/>
<stop offset="1" stop-color="#5E91F3" stop-opacity="0"/>
</linearGradient>
</defs>
</svg>
